# This file was created with Minddesk Qubicle 2.0
# Get Qubicle at www.minddesk.com

mtllib forstsnap.mtl

vn 0.0 0.0 1.0
vn 0.0 0.0 -1.0
vn -1.0 0.0 0.0
vn 1.0 0.0 0.0
vn 0.0 1.0 0.0
vn 0.0 -1.0 0.0

v -6.50000 3.50000 -6.50000
v -6.50000 1.50000 -6.50000
v -7.50000 1.50000 -6.50000
v -7.50000 3.50000 -6.50000
v -5.50000 3.50000 -7.50000
v -5.50000 1.50000 -7.50000
v -6.50000 1.50000 -7.50000
v -6.50000 3.50000 -7.50000
v -4.50000 3.50000 -6.50000
v -4.50000 1.50000 -6.50000
v -5.50000 1.50000 -6.50000
v -5.50000 3.50000 -6.50000
v -3.50000 4.50000 -3.50000
v -3.50000 2.50000 -3.50000
v -4.50000 2.50000 -3.50000
v -4.50000 4.50000 -3.50000
v -2.50000 2.50000 -3.50000
v -2.50000 0.50000 -3.50000
v -3.50000 0.50000 -3.50000
v -2.50000 4.50000 -4.50000
v -2.50000 2.50000 -4.50000
v -3.50000 2.50000 -4.50000
v -3.50000 4.50000 -4.50000
v -1.50000 4.50000 -3.50000
v -1.50000 2.50000 -3.50000
v -2.50000 4.50000 -3.50000
v -6.50000 0.50000 -6.50000
v -6.50000 -0.50000 -6.50000
v -7.50000 -0.50000 -6.50000
v -7.50000 0.50000 -6.50000
v -5.50000 0.50000 -7.50000
v -5.50000 -0.50000 -7.50000
v -6.50000 -0.50000 -7.50000
v -6.50000 0.50000 -7.50000
v -5.50000 0.50000 -6.50000
v -4.50000 0.50000 -6.50000
v -4.50000 -0.50000 -6.50000
v -5.50000 -0.50000 -6.50000
v -3.50000 -0.50000 -3.50000
v -4.50000 -0.50000 -3.50000
v -4.50000 0.50000 -3.50000
v -2.50000 0.50000 -4.50000
v -2.50000 -0.50000 -4.50000
v -3.50000 -0.50000 -4.50000
v -3.50000 0.50000 -4.50000
v -1.50000 0.50000 -3.50000
v -1.50000 -0.50000 -3.50000
v -2.50000 -0.50000 -3.50000
v -7.50000 3.50000 -5.50000
v -7.50000 1.50000 -5.50000
v -6.50000 1.50000 -5.50000
v -6.50000 3.50000 -5.50000
v -6.50000 3.50000 -4.50000
v -6.50000 1.50000 -4.50000
v -5.50000 1.50000 -4.50000
v -5.50000 3.50000 -4.50000
v -5.50000 3.50000 -5.50000
v -5.50000 1.50000 -5.50000
v -4.50000 1.50000 -5.50000
v -4.50000 3.50000 -5.50000
v -4.50000 4.50000 -2.50000
v -4.50000 2.50000 -2.50000
v -3.50000 2.50000 -2.50000
v -3.50000 4.50000 -2.50000
v -3.50000 0.50000 -2.50000
v -2.50000 0.50000 -2.50000
v -2.50000 2.50000 -2.50000
v -3.50000 4.50000 -1.50000
v -3.50000 2.50000 -1.50000
v -2.50000 2.50000 -1.50000
v -2.50000 4.50000 -1.50000
v -2.50000 4.50000 -2.50000
v -1.50000 2.50000 -2.50000
v -1.50000 4.50000 -2.50000
v -7.50000 0.50000 -5.50000
v -7.50000 -0.50000 -5.50000
v -6.50000 -0.50000 -5.50000
v -6.50000 0.50000 -5.50000
v -6.50000 0.50000 -4.50000
v -6.50000 -0.50000 -4.50000
v -5.50000 -0.50000 -4.50000
v -5.50000 0.50000 -4.50000
v -5.50000 0.50000 -5.50000
v -5.50000 -0.50000 -5.50000
v -4.50000 -0.50000 -5.50000
v -4.50000 0.50000 -5.50000
v -4.50000 0.50000 -2.50000
v -4.50000 -0.50000 -2.50000
v -3.50000 -0.50000 -2.50000
v -3.50000 0.50000 -1.50000
v -3.50000 -0.50000 -1.50000
v -2.50000 -0.50000 -1.50000
v -2.50000 0.50000 -1.50000
v -2.50000 -0.50000 -2.50000
v -1.50000 -0.50000 -2.50000
v -1.50000 0.50000 -2.50000

vt 0.03125 0.09375
vt 0.03125 0.03125
vt 0.06250 0.03125
vt 0.06250 0.09375
vt 0.12500 0.09375
vt 0.12500 0.03125
vt 0.15625 0.03125
vt 0.15625 0.09375
vt 0.21875 0.09375
vt 0.21875 0.03125
vt 0.25000 0.03125
vt 0.25000 0.09375
vt 0.31250 0.09375
vt 0.31250 0.03125
vt 0.34375 0.03125
vt 0.34375 0.09375
vt 0.40625 0.09375
vt 0.40625 0.03125
vt 0.43750 0.03125
vt 0.43750 0.09375
vt 0.50000 0.09375
vt 0.50000 0.03125
vt 0.53125 0.03125
vt 0.53125 0.09375
vt 0.59375 0.09375
vt 0.59375 0.03125
vt 0.62500 0.03125
vt 0.62500 0.09375
vt 0.68750 0.09375
vt 0.68750 0.03125
vt 0.71875 0.03125
vt 0.71875 0.09375
vt 0.78125 0.09375
vt 0.78125 0.03125
vt 0.81250 0.03125
vt 0.81250 0.09375
vt 0.87500 0.09375
vt 0.87500 0.03125
vt 0.90625 0.03125
vt 0.90625 0.09375
vt 0.03125 0.21875
vt 0.03125 0.15625
vt 0.06250 0.15625
vt 0.06250 0.21875
vt 0.12500 0.21875
vt 0.12500 0.15625
vt 0.15625 0.15625
vt 0.15625 0.21875
vt 0.21875 0.21875
vt 0.21875 0.15625
vt 0.25000 0.15625
vt 0.25000 0.21875
vt 0.31250 0.21875
vt 0.31250 0.15625
vt 0.34375 0.15625
vt 0.34375 0.21875
vt 0.40625 0.21875
vt 0.40625 0.15625
vt 0.43750 0.15625
vt 0.43750 0.21875
vt 0.50000 0.21875
vt 0.50000 0.15625
vt 0.53125 0.15625
vt 0.53125 0.21875
vt 0.59375 0.21875
vt 0.59375 0.15625
vt 0.62500 0.15625
vt 0.62500 0.21875
vt 0.68750 0.21875
vt 0.68750 0.15625
vt 0.71875 0.15625
vt 0.71875 0.21875
vt 0.78125 0.21875
vt 0.78125 0.15625
vt 0.81250 0.15625
vt 0.81250 0.21875
vt 0.87500 0.21875
vt 0.87500 0.15625
vt 0.90625 0.15625
vt 0.90625 0.21875
vt 0.03125 0.34375
vt 0.03125 0.28125
vt 0.06250 0.28125
vt 0.06250 0.34375
vt 0.12500 0.34375
vt 0.12500 0.28125
vt 0.15625 0.28125
vt 0.15625 0.34375
vt 0.21875 0.34375
vt 0.21875 0.28125
vt 0.25000 0.28125
vt 0.25000 0.34375
vt 0.31250 0.34375
vt 0.31250 0.28125
vt 0.34375 0.28125
vt 0.34375 0.34375
vt 0.40625 0.34375
vt 0.40625 0.28125
vt 0.43750 0.28125
vt 0.43750 0.34375
vt 0.50000 0.34375
vt 0.50000 0.28125
vt 0.53125 0.28125
vt 0.53125 0.34375
vt 0.59375 0.34375
vt 0.59375 0.28125
vt 0.62500 0.28125
vt 0.62500 0.34375
vt 0.68750 0.34375
vt 0.68750 0.28125
vt 0.71875 0.28125
vt 0.71875 0.34375
vt 0.78125 0.31250
vt 0.78125 0.28125
vt 0.87500 0.28125
vt 0.87500 0.31250
vt 0.03125 0.43750
vt 0.03125 0.40625
vt 0.12500 0.40625
vt 0.12500 0.43750
vt 0.18750 0.43750
vt 0.18750 0.40625
vt 0.28125 0.40625
vt 0.28125 0.43750
vt 0.34375 0.43750
vt 0.34375 0.40625
vt 0.43750 0.40625
vt 0.43750 0.43750
vt 0.93750 0.31250
vt 0.93750 0.28125
vt 0.96875 0.28125
vt 0.96875 0.31250
vt 0.50000 0.43750
vt 0.50000 0.40625
vt 0.53125 0.40625
vt 0.53125 0.43750
vt 0.59375 0.43750
vt 0.59375 0.40625
vt 0.62500 0.40625
vt 0.62500 0.43750
vt 0.68750 0.43750
vt 0.68750 0.40625
vt 0.71875 0.40625
vt 0.71875 0.43750
vt 0.78125 0.43750
vt 0.78125 0.40625
vt 0.81250 0.40625
vt 0.81250 0.43750
vt 0.87500 0.43750
vt 0.87500 0.40625
vt 0.90625 0.40625
vt 0.90625 0.43750
vt 0.03125 0.53125
vt 0.03125 0.50000
vt 0.06250 0.50000
vt 0.06250 0.53125
vt 0.12500 0.53125
vt 0.12500 0.50000
vt 0.15625 0.50000
vt 0.15625 0.53125
vt 0.21875 0.53125
vt 0.21875 0.50000
vt 0.25000 0.50000
vt 0.25000 0.53125
vt 0.31250 0.53125
vt 0.31250 0.50000
vt 0.34375 0.50000
vt 0.34375 0.53125
vt 0.40625 0.53125
vt 0.40625 0.50000
vt 0.43750 0.50000
vt 0.43750 0.53125
vt 0.50000 0.53125
vt 0.50000 0.50000
vt 0.53125 0.50000
vt 0.53125 0.53125
vt 0.59375 0.53125
vt 0.59375 0.50000
vt 0.62500 0.50000
vt 0.62500 0.53125
vt 0.68750 0.53125
vt 0.68750 0.50000
vt 0.71875 0.50000
vt 0.71875 0.53125
vt 0.78125 0.53125
vt 0.78125 0.50000
vt 0.81250 0.50000
vt 0.81250 0.53125
vt 0.87500 0.53125
vt 0.87500 0.50000
vt 0.90625 0.50000
vt 0.90625 0.53125
vt 0.03125 0.62500
vt 0.03125 0.59375
vt 0.06250 0.59375
vt 0.06250 0.62500
vt 0.12500 0.62500
vt 0.12500 0.59375
vt 0.15625 0.59375
vt 0.15625 0.62500
vt 0.21875 0.62500
vt 0.21875 0.59375
vt 0.25000 0.59375
vt 0.25000 0.62500
vt 0.31250 0.62500
vt 0.31250 0.59375
vt 0.34375 0.59375
vt 0.34375 0.62500
vt 0.40625 0.62500
vt 0.40625 0.59375
vt 0.43750 0.59375
vt 0.43750 0.62500
vt 0.50000 0.62500
vt 0.50000 0.59375
vt 0.53125 0.59375
vt 0.53125 0.62500
vt 0.59375 0.62500
vt 0.59375 0.59375
vt 0.62500 0.59375
vt 0.62500 0.62500
vt 0.68750 0.62500
vt 0.68750 0.59375
vt 0.71875 0.59375
vt 0.71875 0.62500
vt 0.78125 0.62500
vt 0.78125 0.59375
vt 0.81250 0.59375
vt 0.81250 0.62500
vt 0.87500 0.62500
vt 0.87500 0.59375
vt 0.90625 0.59375
vt 0.90625 0.62500
vt 0.03125 0.71875
vt 0.03125 0.68750
vt 0.06250 0.68750
vt 0.06250 0.71875
vt 0.12500 0.71875
vt 0.12500 0.68750
vt 0.15625 0.68750
vt 0.15625 0.71875
vt 0.21875 0.71875
vt 0.21875 0.68750
vt 0.25000 0.68750
vt 0.25000 0.71875
vt 0.31250 0.71875
vt 0.31250 0.68750
vt 0.34375 0.68750
vt 0.34375 0.71875
vt 0.40625 0.71875
vt 0.40625 0.68750
vt 0.43750 0.68750
vt 0.43750 0.71875
vt 0.50000 0.71875
vt 0.50000 0.68750
vt 0.53125 0.68750
vt 0.53125 0.71875
vt 0.59375 0.71875
vt 0.59375 0.68750
vt 0.62500 0.68750
vt 0.62500 0.71875
vt 0.68750 0.71875
vt 0.68750 0.68750
vt 0.71875 0.68750
vt 0.71875 0.71875
vt 0.78125 0.71875
vt 0.78125 0.68750
vt 0.81250 0.68750
vt 0.81250 0.71875
vt 0.87500 0.71875
vt 0.87500 0.68750
vt 0.90625 0.68750
vt 0.90625 0.71875
vt 0.03125 0.81250
vt 0.03125 0.78125
vt 0.06250 0.78125
vt 0.06250 0.81250
vt 0.12500 0.81250
vt 0.12500 0.78125
vt 0.15625 0.78125
vt 0.15625 0.81250
vt 0.21875 0.81250
vt 0.21875 0.78125
vt 0.25000 0.78125
vt 0.25000 0.81250
vt 0.31250 0.81250
vt 0.31250 0.78125
vt 0.34375 0.78125
vt 0.34375 0.81250
vt 0.40625 0.81250
vt 0.40625 0.78125
vt 0.43750 0.78125
vt 0.43750 0.81250
vt 0.50000 0.81250
vt 0.50000 0.78125
vt 0.53125 0.78125
vt 0.53125 0.81250
vt 0.59375 0.81250
vt 0.59375 0.78125
vt 0.62500 0.78125
vt 0.62500 0.81250
vt 0.68750 0.81250
vt 0.68750 0.78125
vt 0.71875 0.78125
vt 0.71875 0.81250
vt 0.78125 0.81250
vt 0.78125 0.78125
vt 0.81250 0.78125
vt 0.81250 0.81250
vt 0.87500 0.81250
vt 0.87500 0.78125
vt 0.90625 0.78125
vt 0.90625 0.81250
vt 0.03125 0.90625
vt 0.03125 0.87500
vt 0.06250 0.87500
vt 0.06250 0.90625
vt 0.12500 0.90625
vt 0.12500 0.87500
vt 0.15625 0.87500
vt 0.15625 0.90625
vt 0.21875 0.90625
vt 0.21875 0.87500
vt 0.25000 0.87500
vt 0.25000 0.90625
vt 0.31250 0.90625
vt 0.31250 0.87500
vt 0.34375 0.87500
vt 0.34375 0.90625
vt 0.40625 0.90625
vt 0.40625 0.87500
vt 0.43750 0.87500
vt 0.43750 0.90625
vt 0.50000 0.90625
vt 0.50000 0.87500
vt 0.53125 0.87500
vt 0.53125 0.90625

g Matrix_119
usemtl forstsnap_Material
f  1/81/2 2/82/2 3/83/2 4/84/2
f  5/85/2 6/86/2 7/87/2 8/88/2
f  9/89/2 10/90/2 11/91/2 12/92/2
f  13/77/2 14/78/2 15/79/2 16/80/2
f  17/65/2 18/66/2 19/67/2 14/68/2
f  20/69/2 21/70/2 22/71/2 23/72/2
f  24/73/2 25/74/2 17/75/2 26/76/2
f  27/149/2 28/150/2 29/151/2 30/152/2
f  31/153/2 32/154/2 33/155/2 34/156/2
f  11/157/2 35/158/2 27/159/2 2/160/2
f  36/145/2 37/146/2 38/147/2 35/148/2
f  19/133/2 39/134/2 40/135/2 41/136/2
f  42/137/2 43/138/2 44/139/2 45/140/2
f  46/141/2 47/142/2 48/143/2 18/144/2
f  49/17/1 50/18/1 51/19/1 52/20/1
f  53/21/1 54/22/1 55/23/1 56/24/1
f  57/25/1 58/26/1 59/27/1 60/28/1
f  61/13/1 62/14/1 63/15/1 64/16/1
f  63/1/1 65/2/1 66/3/1 67/4/1
f  68/5/1 69/6/1 70/7/1 71/8/1
f  72/9/1 67/10/1 73/11/1 74/12/1
f  75/177/1 76/178/1 77/179/1 78/180/1
f  79/181/1 80/182/1 81/183/1 82/184/1
f  51/185/1 78/186/1 83/187/1 58/188/1
f  83/173/1 84/174/1 85/175/1 86/176/1
f  87/161/1 88/162/1 89/163/1 65/164/1
f  90/165/1 91/166/1 92/167/1 93/168/1
f  66/169/1 94/170/1 95/171/1 96/172/1
f  4/41/3 3/42/3 50/43/3 49/44/3
f  8/37/3 7/38/3 2/39/3 1/40/3
f  52/33/3 51/34/3 54/35/3 53/36/3
f  16/97/3 15/98/3 62/99/3 61/100/3
f  14/93/3 19/94/3 65/95/3 63/96/3
f  23/105/3 22/106/3 14/107/3 13/108/3
f  64/109/3 63/110/3 69/111/3 68/112/3
f  30/129/3 29/130/3 76/131/3 75/132/3
f  34/189/3 33/190/3 28/191/3 27/192/3
f  78/289/3 77/290/3 80/291/3 79/292/3
f  2/285/3 27/286/3 78/287/3 51/288/3
f  41/297/3 40/298/3 88/299/3 87/300/3
f  45/293/3 44/294/3 39/295/3 19/296/3
f  65/281/3 89/282/3 91/283/3 90/284/3
f  12/101/4 11/102/4 6/103/4 5/104/4
f  56/61/4 55/62/4 58/63/4 57/64/4
f  60/29/4 59/30/4 10/31/4 9/32/4
f  67/49/4 66/50/4 18/51/4 17/52/4
f  26/53/4 17/54/4 21/55/4 20/56/4
f  71/57/4 70/58/4 67/59/4 72/60/4
f  74/45/4 73/46/4 25/47/4 24/48/4
f  35/269/4 38/270/4 32/271/4 31/272/4
f  82/265/4 81/266/4 84/267/4 83/268/4
f  58/277/4 83/278/4 35/279/4 11/280/4
f  86/273/4 85/274/4 37/275/4 36/276/4
f  18/325/4 48/326/4 43/327/4 42/328/4
f  93/321/4 92/322/4 94/323/4 66/324/4
f  96/333/4 95/334/4 47/335/4 46/336/4
f  4/121/5 49/122/5 60/123/5 9/124/5
f  16/125/5 61/126/5 74/127/5 24/128/5
f  30/329/5 75/330/5 78/331/5 27/332/5
f  34/317/5 27/318/5 35/319/5 31/320/5
f  78/305/5 79/306/5 82/307/5 83/308/5
f  8/301/5 1/302/5 12/303/5 5/304/5
f  52/313/5 53/314/5 56/315/5 57/316/5
f  35/309/5 83/310/5 86/311/5 36/312/5
f  41/217/5 87/218/5 65/219/5 19/220/5
f  45/213/5 19/214/5 18/215/5 42/216/5
f  65/225/5 90/226/5 93/227/5 66/228/5
f  23/221/5 13/222/5 26/223/5 20/224/5
f  64/209/5 68/210/5 71/211/5 72/212/5
f  18/197/5 66/198/5 96/199/5 46/200/5
f  76/117/6 29/118/6 37/119/6 85/120/6
f  88/113/6 40/114/6 47/115/6 95/116/6
f  50/193/6 3/194/6 2/195/6 51/196/6
f  28/205/6 33/206/6 32/207/6 38/208/6
f  80/201/6 77/202/6 84/203/6 81/204/6
f  2/253/6 7/254/6 6/255/6 11/256/6
f  54/249/6 51/250/6 58/251/6 55/252/6
f  58/261/6 11/262/6 10/263/6 59/264/6
f  62/257/6 15/258/6 14/259/6 63/260/6
f  39/245/6 44/246/6 43/247/6 48/248/6
f  91/233/6 89/234/6 94/235/6 92/236/6
f  14/229/6 22/230/6 21/231/6 17/232/6
f  69/241/6 63/242/6 67/243/6 70/244/6
f  67/237/6 17/238/6 25/239/6 73/240/6
