# Blender v2.77 (sub 0) OBJ File: ''
# www.blender.org
mtllib sapling_oak_tree.mtl
o sapling_oak_tree
v 2.024847 4.500001 -2.080158
v 2.024847 1.500001 -2.080159
v -1.975153 1.500001 -2.080159
v -1.975153 4.500001 -2.080158
v 1.024847 1.500001 -1.080159
v 1.024847 -0.499999 -1.080159
v -0.975153 -0.499999 -1.080159
v -0.975153 1.500001 -1.080159
v 1.024847 5.500001 -2.080158
v 1.024847 4.500001 -2.080158
v -0.975153 4.500001 -2.080158
v -0.975153 5.500001 -2.080158
v -0.975153 5.500001 -1.080158
v -0.975153 4.500001 -1.080158
v -1.975153 4.500001 -1.080158
v -1.975153 5.500001 -1.080158
v 2.024847 5.500001 -1.080158
v 2.024847 4.500001 -1.080158
v 1.024847 4.500001 -1.080158
v 1.024847 5.500001 -1.080158
v -1.975153 4.500000 1.919842
v -1.975153 1.500000 1.919841
v 2.024847 1.500000 1.919841
v 2.024847 4.500000 1.919842
v -0.975153 1.500000 0.919841
v -0.975153 -0.500000 0.919841
v 1.024847 -0.500000 0.919841
v 1.024847 1.500000 0.919841
v -0.975153 5.500000 1.919842
v -0.975153 4.500000 1.919842
v 1.024847 4.500000 1.919842
v 1.024847 5.500000 1.919842
v -1.975153 5.500001 0.919842
v -1.975153 4.500001 0.919842
v -0.975153 4.500001 0.919842
v -0.975153 5.500001 0.919842
v 1.024847 5.500001 0.919842
v 1.024847 4.500001 0.919842
v 2.024847 4.500001 0.919842
v 2.024847 5.500001 0.919842
v -1.975153 1.500000 0.919841
v -1.975153 1.500001 -1.080159
v 2.024847 1.500001 -1.080159
v 2.024847 1.500000 0.919841
vt 0.406250 0.125000
vt 0.406250 0.031250
vt 0.531250 0.031250
vt 0.531250 0.125000
vt 0.531250 0.250000
vt 0.531250 0.187500
vt 0.593750 0.187500
vt 0.593750 0.250000
vt 0.468750 0.343750
vt 0.468750 0.312500
vt 0.531250 0.312500
vt 0.531250 0.343750
vt 0.218750 0.437500
vt 0.218750 0.406250
vt 0.250000 0.406250
vt 0.250000 0.437500
vt 0.125000 0.437500
vt 0.125000 0.406250
vt 0.156250 0.406250
vt 0.156250 0.437500
vt 0.593750 0.125000
vt 0.593750 0.031250
vt 0.718750 0.031250
vt 0.718750 0.125000
vt 0.031250 0.250000
vt 0.031250 0.187500
vt 0.093750 0.187500
vt 0.093750 0.250000
vt 0.218750 0.343750
vt 0.218750 0.312500
vt 0.281250 0.312500
vt 0.281250 0.343750
vt 0.031250 0.437500
vt 0.031250 0.406250
vt 0.062500 0.406250
vt 0.062500 0.437500
vt 0.875000 0.437500
vt 0.875000 0.406250
vt 0.906250 0.406250
vt 0.906250 0.437500
vt 0.031250 0.125000
vt 0.031250 0.031250
vt 0.156250 0.031250
vt 0.156250 0.125000
vt 0.281250 0.250000
vt 0.281250 0.187500
vt 0.343750 0.187500
vt 0.343750 0.250000
vt 0.343750 0.343750
vt 0.343750 0.312500
vt 0.406250 0.312500
vt 0.406250 0.343750
vt 0.781250 0.437500
vt 0.781250 0.406250
vt 0.812500 0.406250
vt 0.812500 0.437500
vt 0.125000 0.531250
vt 0.125000 0.500000
vt 0.156250 0.500000
vt 0.156250 0.531250
vt 0.218750 0.125000
vt 0.218750 0.031250
vt 0.343750 0.031250
vt 0.343750 0.125000
vt 0.156250 0.250000
vt 0.156250 0.187500
vt 0.218750 0.187500
vt 0.218750 0.250000
vt 0.718750 0.343750
vt 0.718750 0.312500
vt 0.781250 0.312500
vt 0.781250 0.343750
vt 0.031250 0.531250
vt 0.031250 0.500000
vt 0.062500 0.500000
vt 0.062500 0.531250
vt 0.687500 0.437500
vt 0.687500 0.406250
vt 0.718750 0.406250
vt 0.718750 0.437500
vt 0.781250 0.093750
vt 0.781250 0.031250
vt 0.906250 0.031250
vt 0.906250 0.093750
vt 0.593750 0.343750
vt 0.593750 0.312500
vt 0.656250 0.312500
vt 0.656250 0.343750
vt 0.843750 0.343750
vt 0.843750 0.312500
vt 0.906250 0.312500
vt 0.906250 0.343750
vt 0.406250 0.437500
vt 0.406250 0.406250
vt 0.437500 0.406250
vt 0.437500 0.437500
vt 0.312500 0.437500
vt 0.312500 0.406250
vt 0.343750 0.406250
vt 0.343750 0.437500
vt 0.593750 0.437500
vt 0.593750 0.406250
vt 0.625000 0.406250
vt 0.625000 0.437500
vt 0.500000 0.437500
vt 0.500000 0.406250
vt 0.531250 0.406250
vt 0.531250 0.437500
vt 0.406250 0.250000
vt 0.406250 0.187500
vt 0.468750 0.187500
vt 0.468750 0.250000
vt 0.750000 0.250000
vt 0.750000 0.187500
vt 0.781250 0.187500
vt 0.781250 0.250000
vt 0.656250 0.250000
vt 0.656250 0.187500
vt 0.687500 0.187500
vt 0.687500 0.250000
vt 0.843750 0.218750
vt 0.843750 0.187500
vt 0.968750 0.187500
vt 0.968750 0.218750
vt 0.031250 0.343750
vt 0.031250 0.312500
vt 0.156250 0.312500
vt 0.156250 0.343750
vn 0.000000 0.000000 -1.000000
vn 0.000000 -0.000000 1.000000
vn -1.000000 -0.000000 0.000000
vn 1.000000 -0.000000 0.000000
vn 0.000000 1.000000 0.000000
vn 0.000000 -1.000000 -0.000000
usemtl sapling_oak_tree_Material
s 1
f 1/1/1 2/2/1 3/3/1 4/4/1
f 5/5/1 6/6/1 7/7/1 8/8/1
f 9/9/1 10/10/1 11/11/1 12/12/1
f 13/13/1 14/14/1 15/15/1 16/16/1
f 17/17/1 18/18/1 19/19/1 20/20/1
f 21/21/2 22/22/2 23/23/2 24/24/2
f 25/25/2 26/26/2 27/27/2 28/28/2
f 29/29/2 30/30/2 31/31/2 32/32/2
f 33/33/2 34/34/2 35/35/2 36/36/2
f 37/37/2 38/38/2 39/39/2 40/40/2
f 4/41/3 3/42/3 22/43/3 21/44/3
f 8/45/3 7/46/3 26/47/3 25/48/3
f 16/49/3 15/50/3 34/51/3 33/52/3
f 12/53/3 11/54/3 14/55/3 13/56/3
f 36/57/3 35/58/3 30/59/3 29/60/3
f 24/61/4 23/62/4 2/63/4 1/64/4
f 28/65/4 27/66/4 6/67/4 5/68/4
f 40/69/4 39/70/4 18/71/4 17/72/4
f 20/73/4 19/74/4 10/75/4 9/76/4
f 32/77/4 31/78/4 38/79/4 37/80/4
f 16/81/5 33/82/5 40/83/5 17/84/5
f 12/85/5 13/86/5 20/87/5 9/88/5
f 36/89/5 29/90/5 32/91/5 37/92/5
f 4/93/5 15/94/5 14/95/5 11/96/5
f 34/97/5 21/98/5 30/99/5 35/100/5
f 10/101/5 19/102/5 18/103/5 1/104/5
f 38/105/5 31/106/5 24/107/5 39/108/5
f 26/109/6 7/110/6 6/111/6 27/112/6
f 41/113/6 42/114/6 8/115/6 25/116/6
f 28/117/6 5/118/6 43/119/6 44/120/6
f 42/121/6 3/122/6 2/123/6 43/124/6
f 22/125/6 41/126/6 44/127/6 23/128/6
