# This file was created with Minddesk Qubicle 2.0
# Get Qubicle at www.minddesk.com

mtllib silkweed.mtl

vn 0.0 0.0 1.0
vn 0.0 0.0 -1.0
vn -1.0 0.0 0.0
vn 1.0 0.0 0.0
vn 0.0 1.0 0.0
vn 0.0 -1.0 0.0

v 4.50000 12.50000 -6.50000
v 4.50000 7.50000 -6.50000
v 1.50000 7.50000 -6.50000
v 1.50000 12.50000 -6.50000
v 6.50000 12.50000 -4.50000
v 6.50000 7.50000 -4.50000
v 3.50000 7.50000 -4.50000
v 3.50000 12.50000 -4.50000
v 3.50000 7.50000 -6.50000
v 3.50000 -0.50000 -6.50000
v 2.50000 -0.50000 -6.50000
v 2.50000 7.50000 -6.50000
v 5.50000 7.50000 -4.50000
v 5.50000 1.50000 -4.50000
v 4.50000 1.50000 -4.50000
v 4.50000 7.50000 -4.50000
v 6.50000 4.50000 -6.50000
v 6.50000 0.50000 -6.50000
v 5.50000 0.50000 -6.50000
v 5.50000 4.50000 -6.50000
v 2.50000 2.50000 -5.50000
v 2.50000 0.50000 -5.50000
v 0.50000 0.50000 -5.50000
v 0.50000 2.50000 -5.50000
v 3.50000 2.50000 -3.50000
v 3.50000 0.50000 -3.50000
v 2.50000 0.50000 -3.50000
v 2.50000 2.50000 -3.50000
v 5.50000 2.50000 -8.50000
v 5.50000 0.50000 -8.50000
v 4.50000 0.50000 -8.50000
v 4.50000 2.50000 -8.50000
v 6.50000 0.50000 -7.50000
v 6.50000 -0.50000 -7.50000
v 3.50000 -0.50000 -7.50000
v 3.50000 0.50000 -7.50000
v 8.50000 1.50000 -4.50000
v 8.50000 0.50000 -4.50000
v 4.50000 0.50000 -4.50000
v 5.50000 0.50000 -4.50000
v 5.50000 -0.50000 -4.50000
v 3.50000 -0.50000 -4.50000
v 3.50000 0.50000 -4.50000
v 8.50000 2.50000 -4.50000
v 6.50000 1.50000 -4.50000
v 6.50000 2.50000 -4.50000
v 2.50000 -0.50000 -5.50000
v 1.50000 -0.50000 -5.50000
v 1.50000 0.50000 -5.50000
v 3.50000 13.50000 -6.50000
v 3.50000 12.50000 -6.50000
v 2.50000 12.50000 -6.50000
v 2.50000 13.50000 -6.50000
v 5.50000 13.50000 -4.50000
v 5.50000 12.50000 -4.50000
v 4.50000 12.50000 -4.50000
v 4.50000 13.50000 -4.50000
v 7.50000 0.50000 -4.50000
v 7.50000 -0.50000 -4.50000
v 6.50000 -0.50000 -4.50000
v 6.50000 0.50000 -4.50000
v 1.50000 12.50000 -5.50000
v 1.50000 7.50000 -5.50000
v 4.50000 7.50000 -5.50000
v 4.50000 12.50000 -5.50000
v 3.50000 12.50000 -3.50000
v 3.50000 7.50000 -3.50000
v 6.50000 7.50000 -3.50000
v 6.50000 12.50000 -3.50000
v 2.50000 7.50000 -5.50000
v 3.50000 0.50000 -5.50000
v 3.50000 7.50000 -5.50000
v 4.50000 7.50000 -3.50000
v 4.50000 1.50000 -3.50000
v 5.50000 1.50000 -3.50000
v 5.50000 7.50000 -3.50000
v 2.50000 2.50000 -2.50000
v 2.50000 -0.50000 -2.50000
v 3.50000 -0.50000 -2.50000
v 3.50000 2.50000 -2.50000
v 5.50000 4.50000 -5.50000
v 5.50000 1.50000 -5.50000
v 6.50000 1.50000 -5.50000
v 6.50000 4.50000 -5.50000
v 0.50000 2.50000 -4.50000
v 0.50000 0.50000 -4.50000
v 2.50000 0.50000 -4.50000
v 2.50000 2.50000 -4.50000
v 4.50000 0.50000 -3.50000
v 8.50000 0.50000 -3.50000
v 8.50000 1.50000 -3.50000
v 3.50000 -0.50000 -5.50000
v 5.50000 -0.50000 -5.50000
v 5.50000 0.50000 -5.50000
v 3.50000 0.50000 -1.50000
v 3.50000 -0.50000 -1.50000
v 5.50000 -0.50000 -1.50000
v 5.50000 0.50000 -1.50000
v 4.50000 1.50000 -5.50000
v 4.50000 0.50000 -5.50000
v 6.50000 0.50000 -5.50000
v 6.50000 2.50000 -3.50000
v 6.50000 1.50000 -3.50000
v 8.50000 2.50000 -3.50000
v 1.50000 0.50000 -4.50000
v 1.50000 -0.50000 -4.50000
v 2.50000 -0.50000 -4.50000
v 2.50000 13.50000 -5.50000
v 2.50000 12.50000 -5.50000
v 3.50000 12.50000 -5.50000
v 3.50000 13.50000 -5.50000
v 4.50000 2.50000 -6.50000
v 4.50000 1.50000 -6.50000
v 5.50000 1.50000 -6.50000
v 5.50000 2.50000 -6.50000
v 4.50000 13.50000 -3.50000
v 4.50000 12.50000 -3.50000
v 5.50000 12.50000 -3.50000
v 5.50000 13.50000 -3.50000
v 5.50000 0.50000 -2.50000
v 5.50000 -0.50000 -2.50000
v 6.50000 -0.50000 -2.50000
v 6.50000 0.50000 -2.50000
v 6.50000 0.50000 -3.50000
v 6.50000 -0.50000 -3.50000
v 7.50000 -0.50000 -3.50000
v 7.50000 0.50000 -3.50000
v 2.50000 0.50000 -2.50000
v 4.50000 1.50000 -8.50000
v 3.50000 0.50000 -6.50000
v 3.50000 0.50000 -2.50000
v 4.50000 0.50000 -7.50000
v 5.50000 0.50000 -7.50000
v 2.50000 -0.50000 -3.50000
v 6.50000 -0.50000 -6.50000
v 6.50000 -0.50000 -5.50000

vt 0.01563 0.28125
vt 0.01563 0.03125
vt 0.03125 0.03125
vt 0.03125 0.28125
vt 0.06250 0.28125
vt 0.06250 0.03125
vt 0.07813 0.03125
vt 0.07813 0.28125
vt 0.10938 0.25000
vt 0.10938 0.03125
vt 0.12500 0.03125
vt 0.12500 0.25000
vt 0.15625 0.25000
vt 0.15625 0.03125
vt 0.17188 0.03125
vt 0.17188 0.25000
vt 0.20313 0.25000
vt 0.20313 0.03125
vt 0.21875 0.03125
vt 0.21875 0.25000
vt 0.25000 0.21875
vt 0.25000 0.03125
vt 0.26563 0.03125
vt 0.26563 0.21875
vt 0.29688 0.21875
vt 0.29688 0.03125
vt 0.31250 0.03125
vt 0.31250 0.21875
vt 0.34375 0.21875
vt 0.34375 0.03125
vt 0.35938 0.03125
vt 0.35938 0.21875
vt 0.39063 0.18750
vt 0.39063 0.03125
vt 0.43750 0.03125
vt 0.43750 0.18750
vt 0.46875 0.18750
vt 0.46875 0.03125
vt 0.51563 0.03125
vt 0.51563 0.18750
vt 0.54688 0.18750
vt 0.54688 0.03125
vt 0.59375 0.03125
vt 0.59375 0.18750
vt 0.62500 0.18750
vt 0.62500 0.03125
vt 0.67188 0.03125
vt 0.67188 0.18750
vt 0.70313 0.18750
vt 0.70313 0.03125
vt 0.71875 0.03125
vt 0.71875 0.18750
vt 0.75000 0.18750
vt 0.75000 0.03125
vt 0.76563 0.03125
vt 0.76563 0.18750
vt 0.79688 0.18750
vt 0.79688 0.03125
vt 0.81250 0.03125
vt 0.81250 0.18750
vt 0.84375 0.18750
vt 0.84375 0.03125
vt 0.85938 0.03125
vt 0.85938 0.18750
vt 0.89063 0.15625
vt 0.89063 0.03125
vt 0.90625 0.03125
vt 0.90625 0.15625
vt 0.93750 0.15625
vt 0.93750 0.03125
vt 0.95313 0.03125
vt 0.95313 0.15625
vt 0.01563 0.43750
vt 0.01563 0.34375
vt 0.03125 0.34375
vt 0.03125 0.43750
vt 0.06250 0.43750
vt 0.06250 0.34375
vt 0.07813 0.34375
vt 0.07813 0.43750
vt 0.10938 0.43750
vt 0.10938 0.34375
vt 0.12500 0.34375
vt 0.12500 0.43750
vt 0.15625 0.40625
vt 0.15625 0.34375
vt 0.18750 0.34375
vt 0.18750 0.40625
vt 0.21875 0.40625
vt 0.21875 0.34375
vt 0.25000 0.34375
vt 0.25000 0.40625
vt 0.28125 0.40625
vt 0.28125 0.34375
vt 0.31250 0.34375
vt 0.31250 0.40625
vt 0.34375 0.40625
vt 0.34375 0.34375
vt 0.35938 0.34375
vt 0.35938 0.40625
vt 0.39063 0.40625
vt 0.39063 0.34375
vt 0.40625 0.34375
vt 0.40625 0.40625
vt 0.43750 0.40625
vt 0.43750 0.34375
vt 0.45313 0.34375
vt 0.45313 0.40625
vt 0.48438 0.40625
vt 0.48438 0.34375
vt 0.50000 0.34375
vt 0.50000 0.40625
vt 0.53125 0.40625
vt 0.53125 0.34375
vt 0.54688 0.34375
vt 0.54688 0.40625
vt 0.57813 0.40625
vt 0.57813 0.34375
vt 0.59375 0.34375
vt 0.59375 0.40625
vt 0.62500 0.40625
vt 0.62500 0.34375
vt 0.64063 0.34375
vt 0.64063 0.40625
vt 0.67188 0.40625
vt 0.67188 0.34375
vt 0.68750 0.34375
vt 0.68750 0.40625
vt 0.71875 0.40625
vt 0.71875 0.34375
vt 0.73438 0.34375
vt 0.73438 0.40625
vt 0.76563 0.37500
vt 0.76563 0.34375
vt 0.84375 0.34375
vt 0.84375 0.37500
vt 0.87500 0.37500
vt 0.87500 0.34375
vt 0.93750 0.34375
vt 0.93750 0.37500
vt 0.01563 0.53125
vt 0.01563 0.50000
vt 0.07813 0.50000
vt 0.07813 0.53125
vt 0.10938 0.53125
vt 0.10938 0.50000
vt 0.17188 0.50000
vt 0.17188 0.53125
vt 0.20313 0.53125
vt 0.20313 0.50000
vt 0.26563 0.50000
vt 0.26563 0.53125
vt 0.29688 0.53125
vt 0.29688 0.50000
vt 0.34375 0.50000
vt 0.34375 0.53125
vt 0.37500 0.53125
vt 0.37500 0.50000
vt 0.42188 0.50000
vt 0.42188 0.53125
vt 0.45313 0.53125
vt 0.45313 0.50000
vt 0.50000 0.50000
vt 0.50000 0.53125
vt 0.53125 0.53125
vt 0.53125 0.50000
vt 0.57813 0.50000
vt 0.57813 0.53125
vt 0.60938 0.53125
vt 0.60938 0.50000
vt 0.65625 0.50000
vt 0.65625 0.53125
vt 0.68750 0.53125
vt 0.68750 0.50000
vt 0.71875 0.50000
vt 0.71875 0.53125
vt 0.75000 0.53125
vt 0.75000 0.50000
vt 0.78125 0.50000
vt 0.78125 0.53125
vt 0.81250 0.53125
vt 0.81250 0.50000
vt 0.84375 0.50000
vt 0.84375 0.53125
vt 0.87500 0.53125
vt 0.87500 0.50000
vt 0.90625 0.50000
vt 0.90625 0.53125
vt 0.93750 0.53125
vt 0.93750 0.50000
vt 0.96875 0.50000
vt 0.96875 0.53125
vt 0.01563 0.62500
vt 0.01563 0.59375
vt 0.04688 0.59375
vt 0.04688 0.62500
vt 0.07813 0.62500
vt 0.07813 0.59375
vt 0.10938 0.59375
vt 0.10938 0.62500
vt 0.14063 0.62500
vt 0.14063 0.59375
vt 0.17188 0.59375
vt 0.17188 0.62500
vt 0.20313 0.62500
vt 0.20313 0.59375
vt 0.23438 0.59375
vt 0.23438 0.62500
vt 0.26563 0.62500
vt 0.26563 0.59375
vt 0.29688 0.59375
vt 0.29688 0.62500
vt 0.32813 0.62500
vt 0.32813 0.59375
vt 0.35938 0.59375
vt 0.35938 0.62500
vt 0.39063 0.62500
vt 0.39063 0.59375
vt 0.42188 0.59375
vt 0.42188 0.62500
vt 0.45313 0.62500
vt 0.45313 0.59375
vt 0.48438 0.59375
vt 0.48438 0.62500
vt 0.51563 0.62500
vt 0.51563 0.59375
vt 0.54688 0.59375
vt 0.54688 0.62500
vt 0.96875 0.37500
vt 0.96875 0.34375
vt 0.98438 0.34375
vt 0.98438 0.37500
vt 0.57813 0.62500
vt 0.57813 0.59375
vt 0.59375 0.59375
vt 0.59375 0.62500
vt 0.62500 0.62500
vt 0.62500 0.59375
vt 0.64063 0.59375
vt 0.64063 0.62500
vt 0.67188 0.62500
vt 0.67188 0.59375
vt 0.68750 0.59375
vt 0.68750 0.62500
vt 0.71875 0.62500
vt 0.71875 0.59375
vt 0.73438 0.59375
vt 0.73438 0.62500
vt 0.76563 0.62500
vt 0.76563 0.59375
vt 0.78125 0.59375
vt 0.78125 0.62500
vt 0.81250 0.62500
vt 0.81250 0.59375
vt 0.82813 0.59375
vt 0.82813 0.62500
vt 0.85938 0.62500
vt 0.85938 0.59375
vt 0.87500 0.59375
vt 0.87500 0.62500
vt 0.90625 0.62500
vt 0.90625 0.59375
vt 0.92188 0.59375
vt 0.92188 0.62500
vt 0.95313 0.62500
vt 0.95313 0.59375
vt 0.96875 0.59375
vt 0.96875 0.62500
vt 0.01563 0.71875
vt 0.01563 0.68750
vt 0.03125 0.68750
vt 0.03125 0.71875
vt 0.06250 0.71875
vt 0.06250 0.68750
vt 0.07813 0.68750
vt 0.07813 0.71875
vt 0.10938 0.71875
vt 0.10938 0.68750
vt 0.12500 0.68750
vt 0.12500 0.71875
vt 0.15625 0.71875
vt 0.15625 0.68750
vt 0.17188 0.68750
vt 0.17188 0.71875
vt 0.20313 0.71875
vt 0.20313 0.68750
vt 0.21875 0.68750
vt 0.21875 0.71875
vt 0.25000 0.71875
vt 0.25000 0.68750
vt 0.26563 0.68750
vt 0.26563 0.71875
vt 0.29688 0.71875
vt 0.29688 0.68750
vt 0.31250 0.68750
vt 0.31250 0.71875
vt 0.34375 0.71875
vt 0.34375 0.68750
vt 0.35938 0.68750
vt 0.35938 0.71875
vt 0.39063 0.71875
vt 0.39063 0.68750
vt 0.40625 0.68750
vt 0.40625 0.71875
vt 0.43750 0.71875
vt 0.43750 0.68750
vt 0.45313 0.68750
vt 0.45313 0.71875
vt 0.48438 0.71875
vt 0.48438 0.68750
vt 0.50000 0.68750
vt 0.50000 0.71875
vt 0.53125 0.71875
vt 0.53125 0.68750
vt 0.54688 0.68750
vt 0.54688 0.71875
vt 0.57813 0.71875
vt 0.57813 0.68750
vt 0.59375 0.68750
vt 0.59375 0.71875
vt 0.62500 0.71875
vt 0.62500 0.68750
vt 0.64063 0.68750
vt 0.64063 0.71875
vt 0.67188 0.71875
vt 0.67188 0.68750
vt 0.68750 0.68750
vt 0.68750 0.71875
vt 0.71875 0.71875
vt 0.71875 0.68750
vt 0.73438 0.68750
vt 0.73438 0.71875
vt 0.76563 0.71875
vt 0.76563 0.68750
vt 0.78125 0.68750
vt 0.78125 0.71875
vt 0.81250 0.71875
vt 0.81250 0.68750
vt 0.82813 0.68750
vt 0.82813 0.71875
vt 0.85938 0.71875
vt 0.85938 0.68750
vt 0.87500 0.68750
vt 0.87500 0.71875
vt 0.90625 0.71875
vt 0.90625 0.68750
vt 0.92188 0.68750
vt 0.92188 0.71875
vt 0.95313 0.71875
vt 0.95313 0.68750
vt 0.96875 0.68750
vt 0.96875 0.71875
vt 0.01563 0.81250
vt 0.01563 0.78125
vt 0.03125 0.78125
vt 0.03125 0.81250
vt 0.06250 0.81250
vt 0.06250 0.78125
vt 0.07813 0.78125
vt 0.07813 0.81250
vt 0.10938 0.81250
vt 0.10938 0.78125
vt 0.12500 0.78125
vt 0.12500 0.81250
vt 0.15625 0.81250
vt 0.15625 0.78125
vt 0.17188 0.78125
vt 0.17188 0.81250
vt 0.20313 0.81250
vt 0.20313 0.78125
vt 0.21875 0.78125
vt 0.21875 0.81250
vt 0.25000 0.81250
vt 0.25000 0.78125
vt 0.26563 0.78125
vt 0.26563 0.81250
vt 0.29688 0.81250
vt 0.29688 0.78125
vt 0.31250 0.78125
vt 0.31250 0.81250
vt 0.34375 0.81250
vt 0.34375 0.78125
vt 0.35938 0.78125
vt 0.35938 0.81250
vt 0.39063 0.81250
vt 0.39063 0.78125
vt 0.40625 0.78125
vt 0.40625 0.81250
vt 0.43750 0.81250
vt 0.43750 0.78125
vt 0.45313 0.78125
vt 0.45313 0.81250
vt 0.48438 0.81250
vt 0.48438 0.78125
vt 0.50000 0.78125
vt 0.50000 0.81250
vt 0.53125 0.81250
vt 0.53125 0.78125
vt 0.54688 0.78125
vt 0.54688 0.81250
vt 0.57813 0.81250
vt 0.57813 0.78125
vt 0.59375 0.78125
vt 0.59375 0.81250

g Matrix_249
usemtl silkweed_Material
f  1/41/2 2/42/2 3/43/2 4/44/2
f  5/45/2 6/46/2 7/47/2 8/48/2
f  9/1/2 10/2/2 11/3/2 12/4/2
f  13/29/2 14/30/2 15/31/2 16/32/2
f  17/69/2 18/70/2 19/71/2 20/72/2
f  21/85/2 22/86/2 23/87/2 24/88/2
f  25/129/2 26/130/2 27/131/2 28/132/2
f  29/125/2 30/126/2 31/127/2 32/128/2
f  33/157/2 34/158/2 35/159/2 36/160/2
f  37/145/2 38/146/2 39/147/2 15/148/2
f  40/217/2 41/218/2 42/219/2 43/220/2
f  44/209/2 37/210/2 45/211/2 46/212/2
f  22/257/2 47/258/2 48/259/2 49/260/2
f  50/237/2 51/238/2 52/239/2 53/240/2
f  54/229/2 55/230/2 56/231/2 57/232/2
f  58/233/2 59/234/2 60/235/2 61/236/2
f  62/33/1 63/34/1 64/35/1 65/36/1
f  66/37/1 67/38/1 68/39/1 69/40/1
f  70/17/1 22/18/1 71/19/1 72/20/1
f  73/21/1 74/22/1 75/23/1 76/24/1
f  77/81/1 78/82/1 79/83/1 80/84/1
f  81/77/1 82/78/1 83/79/1 84/80/1
f  85/93/1 86/94/1 87/95/1 88/96/1
f  74/149/1 89/150/1 90/151/1 91/152/1
f  71/213/1 92/214/1 93/215/1 94/216/1
f  95/201/1 96/202/1 97/203/1 98/204/1
f  99/205/1 100/206/1 101/207/1 83/208/1
f  102/173/1 103/174/1 91/175/1 104/176/1
f  105/249/1 106/250/1 107/251/1 87/252/1
f  108/245/1 109/246/1 110/247/1 111/248/1
f  112/241/1 113/242/1 114/243/1 115/244/1
f  116/253/1 117/254/1 118/255/1 119/256/1
f  120/265/1 121/266/1 122/267/1 123/268/1
f  124/261/1 125/262/1 126/263/1 127/264/1
f  4/61/3 3/62/3 63/63/3 62/64/3
f  12/5/3 11/6/3 47/7/3 70/8/3
f  8/57/3 7/58/3 67/59/3 66/60/3
f  16/13/3 39/14/3 89/15/3 73/16/3
f  20/73/3 114/74/3 82/75/3 81/76/3
f  24/109/3 23/110/3 86/111/3 85/112/3
f  28/105/3 27/106/3 128/107/3 77/108/3
f  129/153/3 31/154/3 100/155/3 99/156/3
f  87/189/3 107/190/3 78/191/3 128/192/3
f  32/193/3 129/194/3 113/195/3 112/196/3
f  49/357/3 48/358/3 106/359/3 105/360/3
f  53/353/3 52/354/3 109/355/3 108/356/3
f  36/365/3 35/366/3 10/367/3 130/368/3
f  131/361/3 79/362/3 96/363/3 95/364/3
f  57/341/3 56/342/3 117/343/3 116/344/3
f  94/337/3 93/338/3 41/339/3 40/340/3
f  46/349/3 45/350/3 103/351/3 102/352/3
f  72/9/4 71/10/4 130/11/4 9/12/4
f  65/49/4 64/50/4 2/51/4 1/52/4
f  76/25/4 75/26/4 14/27/4 13/28/4
f  69/53/4 68/54/4 6/55/4 5/56/4
f  84/65/4 101/66/4 18/67/4 17/68/4
f  115/89/4 19/90/4 30/91/4 29/92/4
f  88/113/4 87/114/4 22/115/4 21/116/4
f  80/121/4 131/122/4 26/123/4 25/124/4
f  104/117/4 90/118/4 38/119/4 44/120/4
f  61/169/4 60/170/4 34/171/4 33/172/4
f  43/345/4 42/346/4 92/347/4 71/348/4
f  111/369/4 110/370/4 51/371/4 50/372/4
f  98/393/4 97/394/4 121/395/4 120/396/4
f  119/389/4 118/390/4 55/391/4 54/392/4
f  123/401/4 122/402/4 125/403/4 124/404/4
f  127/397/4 126/398/4 59/399/4 58/400/4
f  36/97/5 71/98/5 100/99/5 132/100/5
f  32/101/5 112/102/5 115/103/5 29/104/5
f  26/161/5 131/162/5 123/163/5 124/164/5
f  24/185/5 85/186/5 88/187/5 21/188/5
f  87/197/5 27/198/5 89/199/5 39/200/5
f  131/221/5 95/222/5 98/223/5 120/224/5
f  46/225/5 102/226/5 104/227/5 44/228/5
f  4/377/5 62/378/5 109/379/5 52/380/5
f  22/373/5 87/374/5 43/375/5 71/376/5
f  28/385/5 77/386/5 80/387/5 25/388/5
f  53/381/5 108/382/5 111/383/5 50/384/5
f  51/289/5 110/290/5 65/291/5 1/292/5
f  8/285/5 66/286/5 117/287/5 56/288/5
f  113/297/5 99/298/5 82/299/5 114/300/5
f  57/293/5 116/294/5 119/295/5 54/296/5
f  133/273/5 19/274/5 18/275/5 33/276/5
f  94/269/5 40/270/5 61/271/5 101/272/5
f  14/281/5 75/282/5 103/283/5 45/284/5
f  20/277/5 81/278/5 84/279/5 17/280/5
f  55/301/5 118/302/5 69/303/5 5/304/5
f  134/133/6 107/134/6 59/135/6 126/136/6
f  47/141/6 11/142/6 135/143/6 136/144/6
f  78/137/6 134/138/6 125/139/6 122/140/6
f  10/165/6 35/166/6 34/167/6 135/168/6
f  106/177/6 48/178/6 92/179/6 42/180/6
f  96/181/6 79/182/6 121/183/6 97/184/6
f  86/325/6 23/326/6 49/327/6 105/328/6
f  63/321/6 3/322/6 12/323/6 70/324/6
f  72/333/6 9/334/6 2/335/6 64/336/6
f  67/329/6 7/330/6 16/331/6 73/332/6
f  132/309/6 31/310/6 30/311/6 133/312/6
f  41/305/6 93/306/6 136/307/6 60/308/6
f  76/317/6 13/318/6 6/319/6 68/320/6
f  127/313/6 58/314/6 38/315/6 90/316/6
